# xmcd CD database file
# Copyright (C) 1993-1998 Ti Kan
# 
# Track frame offsets:
#     150
#     31420
#     62785
#     94417
#     111620
#     122082
#     142012
#     153910
#     182460
#     202540
#     218282
#     235330
#     245090
#     274637
#     287162
# 
# Disc length: 4453 seconds
# 
# Revision: 1
# Processed by: cddbd v1.4b41PL1 Copyright (c) Steve Scherf et al.
# Submitted via: DiscPlay 4.0.4
# 
DISCID=d911630f
DTITLE=Eric Clapton - Living On Blues Power Vol. 2
DYEAR=1900
DGENRE=
TTITLE0=I Shot The Sheriff (Instrumental)
TTITLE1=Crossroads (Instrumental)
TTITLE2=Crossroads (Instrumental)
TTITLE3=Crossroads (Instrumental)
TTITLE4=Instrumental
TTITLE5=It's So Hard To Find A Friend
TTITLE6=Till I See You Again
TTITLE7=Instrumental
TTITLE8=Evil
TTITLE9=Nobody Knows You When You're Down And Out (Instrumental)
TTITLE10=Instrumental
TTITLE11=It's Too Late To Be Sorry
TTITLE12=It's Too Late To Be Sorry
TTITLE13=Instrumental
TTITLE14=Instrumental
EXTD=
EXTT0=
EXTT1=
EXTT2=
EXTT3=
EXTT4=
EXTT5=
EXTT6=
EXTT7=
EXTT8=
EXTT9=
EXTT10=
EXTT11=
EXTT12=
EXTT13=
EXTT14=
PLAYORDER=
